<svg xmlns="http://www.w3.org/2000/svg" viewBox="0 0 1200 630" width="1200" height="630">
  <defs>
    <linearGradient id="bg" x1="0" y1="0" x2="1" y2="1">
      <stop offset="0" stop-color="#0a1020"/>
      <stop offset="1" stop-color="#111a31"/>
    </linearGradient>
    <radialGradient id="glow" cx="80%" cy="15%" r="60%">
      <stop offset="0" stop-color="#0fb5c4" stop-opacity="0.35"/>
      <stop offset="1" stop-color="#0fb5c4" stop-opacity="0"/>
    </radialGradient>
  </defs>
  <rect width="1200" height="630" fill="url(#bg)"/>
  <rect width="1200" height="630" fill="url(#glow)"/>

  <!-- node motif -->
  <g transform="translate(940,300)" stroke="#0fb5c4" stroke-width="2" fill="none" opacity="0.9">
    <circle cx="0" cy="0" r="40" fill="#0c1426"/>
    <line x1="0" y1="0" x2="0" y2="-110"/>
    <line x1="0" y1="0" x2="105" y2="34"/>
    <line x1="0" y1="0" x2="65" y2="100"/>
    <line x1="0" y1="0" x2="-65" y2="100"/>
    <line x1="0" y1="0" x2="-105" y2="34"/>
    <circle cx="0" cy="-110" r="20" fill="#101a30"/>
    <circle cx="105" cy="34" r="20" fill="#101a30"/>
    <circle cx="65" cy="100" r="20" fill="#101a30"/>
    <circle cx="-65" cy="100" r="20" fill="#101a30"/>
    <circle cx="-105" cy="34" r="20" fill="#101a30"/>
  </g>

  <text x="90" y="170" font-family="'JetBrains Mono', monospace" font-size="24" letter-spacing="6" fill="#0fb5c4">NJUMWA LABS</text>
  <text x="86" y="290" font-family="'Space Grotesk', sans-serif" font-size="74" font-weight="600" fill="#ffffff">Software, automation</text>
  <text x="86" y="372" font-family="'Space Grotesk', sans-serif" font-size="74" font-weight="600" fill="#ffffff">&amp; data systems that</text>
  <text x="86" y="454" font-family="'Space Grotesk', sans-serif" font-size="74" font-weight="600" fill="#0fb5c4">grow your business.</text>
  <text x="90" y="545" font-family="'Inter', sans-serif" font-size="28" fill="#9fb0cc">Web · AI automation · Mobile · Databases · Dynamics 365</text>
</svg>
